<?xml version="1.0" encoding="utf-8"?>
<!-- Generator: Adobe Illustrator 17.0.1, SVG Export Plug-In . SVG Version: 6.00 Build 0)  -->
<!DOCTYPE svg PUBLIC "-//W3C//DTD SVG 1.1//EN" "http://www.w3.org/Graphics/SVG/1.1/DTD/svg11.dtd">
<svg version="1.1" id="Warstwa_1" xmlns="http://www.w3.org/2000/svg" xmlns:xlink="http://www.w3.org/1999/xlink" x="0px" y="0px"
	 width="2117px" height="752px" viewBox="0 0 2117 752" enable-background="new 0 0 2117 752" xml:space="preserve">
<g>
	<rect x="-426.5" y="-271.5" fill="none" width="2970" height="1065.5"/>
	<path fill="#FFF0F3" d="M114.903,390.943c-29.685-11.913-49.093-40.07-42.243-86.64c2.283-18.411-2.283-33.573-15.984-53.066
		c37.676,2.166,43.385-24.909,58.227-44.403c18.268-24.909,38.818-46.568,67.361-61.73c23.976-12.996,45.668-11.913,68.502,2.166
		c21.692,14.079,28.543,31.407,19.409,54.149c-18.268,47.652-55.944,74.727-103.896,90.971c-11.417,4.332-22.834,6.498-36.535,9.747
		c-13.701,33.573-5.708,47.652,9.134,56.315c45.668,25.992,155.272-55.232,191.807-89.888c23.976-22.743,43.385,4.332,17.126,23.825
		C308.994,325.964,199.39,423.434,114.903,390.943z M231.357,206.834c19.409-33.573-4.566-35.739-27.401-17.328
		c-26.259,20.577-47.952,53.066-58.227,76.893C182.264,257.735,217.657,229.578,231.357,206.834z"/>
	<path fill="#FFF0F3" d="M708.582,260.984l-21.693,60.647c45.668-18.411,102.754-36.822,134.722-58.481
		c19.409,10.83,22.834,24.909-1.142,42.236c-41.102,27.075-105.037,43.32-151.847,61.73l-6.85,12.996
		c-23.976,50.9-49.094,100.719-77.636,149.453c-28.543,48.734-66.219,90.972-111.888,126.71
		c-33.109,24.909-68.502,44.403-111.887,51.983c-53.66,8.664-99.329-6.498-139.289-37.904c-27.401-22.743-35.393-50.9-18.267-81.225
		c13.7-23.826,30.826-47.651,52.519-64.979c37.676-31.406,78.778-60.647,122.163-83.391
		c74.211-38.987,151.847-72.561,228.342-107.216c19.409-8.664,33.109-19.494,38.818-40.071
		c10.275-31.406,22.834-63.896,28.543-98.552l-30.826,19.494c-49.093,31.407-98.187,64.979-148.422,94.22
		c-26.26,16.245-55.944,28.158-84.487,40.071c-25.117,9.746-50.235,6.498-71.927-11.913c-15.984-15.162-23.976-32.49-14.842-54.15
		c3.425-8.664,5.708-17.328,10.275-24.909c42.243-68.229,100.47-118.046,180.39-145.121c55.944-18.411,97.045-3.249,129.013,47.652
		c7.992-4.332,13.701-7.581,19.409-11.913c14.842-9.747,30.826-15.162,47.952-3.249c18.267,11.913,25.118,28.158,18.267,48.735
		L708.582,260.984z M383.194,488.413c-33.109,19.493-63.936,42.236-92.478,66.063c-17.126,14.078-31.968,32.489-42.244,51.983
		c-20.55,36.821-4.566,62.813,38.818,67.146c31.968,4.332,63.936-1.083,90.195-18.411c31.968-20.577,62.794-42.236,90.195-68.229
		c55.944-54.149,94.762-120.212,129.013-188.44c1.142-3.249,1.142-6.498,2.284-15.162
		C521.341,415.853,449.414,447.259,383.194,488.413z M370.636,315.134c51.377-9.747,179.248-82.308,235.192-133.208
		c-18.268-90.971-139.289,1.083-178.106,37.905C384.336,260.984,367.211,290.225,370.636,315.134z"/>
	<path fill="#FFF0F3" d="M1079.62,254.486c28.543-3.249,31.968,28.158-10.275,33.573c-33.109,3.249-66.219,6.498-100.471,7.581
		c-17.125,1.083-27.401,6.498-36.534,20.577c-27.401,38.988-55.944,88.806-98.187,92.055c-31.968,4.332-53.661-12.996-51.377-43.32
		c3.425-54.149,20.551-103.967,49.093-151.619c31.968-17.328,44.527-51.983,70.786-74.727c5.708-4.332,10.275-9.747,17.125-12.996
		C948.324,111.531,986,128.859,986,160.266c0,21.66-6.851,43.319-11.417,64.979c-2.283,11.913-7.992,22.743-13.701,38.988
		C1004.268,260.984,1041.943,256.652,1079.62,254.486z M854.704,277.229c-15.984,33.573-22.834,64.98-18.268,95.303
		c13.701,9.747,34.251-22.742,55.944-71.478C875.254,296.723,861.554,291.308,854.704,277.229z M914.072,255.569
		c66.219-136.457,2.283-135.374-26.259-27.075C875.254,256.652,903.797,280.478,914.072,255.569z"/>
	<path fill="#FFF0F3" d="M1221.184,266.399c14.842-11.913,17.125-14.079,30.826,5.415c-57.086,51.984-71.928,60.648-131.297,109.382
		c-43.385,36.822-77.637-2.166-74.211-40.07c4.566-50.901,20.551-97.47,45.668-141.872c3.426-6.498,9.134-12.996,13.701-19.494
		c22.834-23.826,38.817-21.66,61.651,5.415c-38.817,34.656-57.085,77.976-69.644,122.378c-25.118,79.059,2.283,48.734,47.951,16.245
		C1185.79,293.474,1183.507,296.723,1221.184,266.399z M1177.798,136.44c-50.234-5.415-15.983-48.734-2.283-71.478
		c15.984-23.826,22.834-23.826,49.094-1.083C1208.624,88.789,1193.782,110.448,1177.798,136.44z"/>
	<path fill="#FFF0F3" d="M1652.737,259.901c29.685,8.664,27.401,25.992,4.567,41.153c-28.543,19.494-81.062,61.73-109.604,80.142
		c-9.134,5.415-20.551,10.83-31.968,12.996c-47.951,12.996-85.628-18.411-76.494-64.979c5.708-31.407,18.268-62.813,28.543-95.304
		c5.708-16.245,13.7-31.407,14.842-51.983c-6.851,4.332-14.842,7.581-20.551,14.079c-42.243,41.153-83.345,82.307-125.588,123.461
		c-18.268,18.411-35.393,35.739-53.66,53.066c-9.134,7.581-18.268,14.079-28.543,19.494c-26.259,10.83-57.085-7.581-57.085-34.656
		c0-8.663,2.283-18.41,4.566-25.991c20.551-64.979,47.952-126.71,83.345-186.275c17.126-28.158,22.834-28.158,50.235-5.415
		c-34.251,62.813-61.652,128.876-79.92,200.354c10.275-8.664,19.409-17.328,28.543-27.075
		c50.235-47.651,99.328-96.386,149.563-144.038c12.559-12.996,28.543-22.743,44.527-32.49c15.983-10.83,31.968-9.747,47.951,1.083
		c17.126,9.747,18.268,24.909,14.843,41.154c-4.567,17.328-10.275,33.573-17.126,50.901c-10.275,31.407-22.834,61.73-33.109,94.22
		c-4.567,11.913-4.567,24.909-7.992,44.402C1540.851,346.541,1607.069,292.391,1652.737,259.901z"/>
	<path fill="#FFF0F3" d="M1837.69,359.536c23.976,1.083,41.102-6.497,58.227-15.161c39.96-22.743,94.762-53.067,134.722-75.81
		c17.126-9.747,17.126-6.498,33.109,11.913c-5.708,5.415-11.417,10.83-17.125,15.162c-41.102,25.992-82.203,51.984-123.305,75.81
		c-15.984,8.664-34.251,15.162-52.519,17.328c-54.802,5.415-86.77-28.158-77.637-79.059c1.143-4.332,2.284-8.664,4.567-18.411
		c-22.834,17.328-39.96,31.407-58.228,44.403c-17.125,11.913-34.251,22.742-51.377,33.572c-20.551,11.913-41.102,8.664-60.51-2.166
		c-14.843-9.747-22.835-22.742-15.984-40.07c4.567-11.913,9.134-24.909,17.126-35.739c35.393-55.232,79.919-101.801,133.58-138.623
		c13.7-9.747,28.542-16.245,43.385-23.826c52.519-24.909,95.903-2.166,141.571,25.992
		C1900.484,220.914,1846.824,277.229,1837.69,359.536z M1886.783,151.602c-67.36-2.166-178.106,89.888-214.641,176.528
		C1752.063,275.063,1818.281,215.499,1886.783,151.602z"/>
</g>
</svg>
