<?xml version="1.0" encoding="utf-8"?>
<!-- Generator: Adobe Illustrator 17.0.1, SVG Export Plug-In . SVG Version: 6.00 Build 0)  -->
<!DOCTYPE svg PUBLIC "-//W3C//DTD SVG 1.1//EN" "http://www.w3.org/Graphics/SVG/1.1/DTD/svg11.dtd">
<svg version="1.1" id="Warstwa_1" xmlns="http://www.w3.org/2000/svg" xmlns:xlink="http://www.w3.org/1999/xlink" x="0px" y="0px"
	 width="96px" height="46px" viewBox="0 0 96 46" enable-background="new 0 0 96 46" xml:space="preserve">
<g>
	<rect x="-11.724" y="-2.667" fill="none" width="115.37" height="47.257"/>
	<path fill="#EA5A59" d="M26.221,27.166c-8.854,9.201-12.596,4.551-8.274-5.299c1.476-3.5,3.057-6.451,4.691-9.401
		c0.316-0.45,0.527-0.95,0.948-1.75c-1.001,0-1.739,0.05-2.477,0c-1.687,0-11.963-0.05-13.597-0.05c-0.738,0-1.476-0.35-2.003,0.45
		c-0.105,0.15-0.58,0.15-0.738,0.05c-0.791-0.45-1.581-0.9-1.687-2.1c0.58-0.05,1.159-0.15,1.739-0.15
		c3.215,0.1,15.021,0.15,18.288,0.3c1.054,0.05,1.687-0.25,2.319-1.15c1.528-2.2,3.163-4.35,4.901-6.45
		c0.844-1.05,1.265-0.95,2.214,0.4c-2.003,2.1-3.689,4.5-5.323,7.2l7.484,0.25c0.475,0,1.001,0,1.476,0.1
		c0.632,0.15,1.159,0.45,1.317,1.3c-0.369,0.05-0.738,0.1-1.054,0.1c-3.057,0-6.062,0-9.065-0.05c-0.843,0-1.37,0.15-1.792,0.95
		c-2.003,3.5-4.005,7.15-5.586,10.95c-3.531,8.85-1.107,9.201,5.323,3.451c1.371-1.251,2.478-2.601,3.373-4.1
		c0.053-0.05,0.369-0.6,0.527-0.55c1.054,0.3,1.054,0.7,0.369,1.65c-1.001,1.3-1.95,2.55-3.162,3.65l-0.264,0.25H26.221z"/>
	<path fill="#EA5A59" d="M36.868,17.066c-0.264-0.15-0.421-0.35-0.685-0.55c-1.897,0.95-7.01,3.05-5.007,5.25
		c0.843,0.95,1.739,1.85,2.688,2.85c0.632-0.25,1.476-0.65,2.319-1.05c0.79-0.4,1.581-0.8,2.424-1.2c1.055-0.55,0.844-0.7,1.792,0.5
		c-2.056,1.25-3.899,2-5.956,3.049c-0.58,0.25-0.843,1.05-1.054,1.601c-1.318,3.5-3.848,6.1-7.01,8.2
		c-0.949,0.6-2.003,0.95-3.215,0.9c-2.108-0.2-3.057-1.851-1.792-3.45c0.791-1.001,1.739-2.001,2.846-2.751
		c2.477-1.7,4.901-3.1,7.273-4.6c0.791-0.45-2.424-2.95-2.846-3.55c-0.685-0.8-0.263-2.65,0.422-3.4c1.528-1.7,3.479-2.95,5.639-3.7
		c0.58-0.2,1.318-0.2,1.897,0c1.055,0.25,1.318,0.95,0.949,2.2C37.29,17.266,37.079,17.216,36.868,17.066z M22.585,34.967
		c2.424-0.4,5.85-3.2,7.431-6.101C27.223,30.467,24.482,32.066,22.585,34.967z"/>
	<path fill="#EA5A59" d="M51.468,27.216c-1.107,1.101-2.793,3.001-4.532,2.751c-1.477-0.25-2.319-1.4-2.108-2.95
		c0.105-0.601,0.264-1.2,0.475-1.801c0.157-0.55,0.368-1.149,0.685-2.049c-0.58,0.45-0.896,0.75-1.265,1
		c-0.844,0.65-1.687,1.45-2.688,1.95c-1.739,0.9-3.636-0.25-3.373-2.15c0.264-2.549,1.529-4.75,3.163-6.8
		c0.579-0.75,1.634-0.45,1.949,0.5c0.105,0.2,0.053,0.5,0.053,0.65c-1.423,1.05-2.107,2.45-2.582,3.9
		c-2.161,6.4,4.954-2.3,5.85-3.25c0.475-0.55,0.949-1.1,1.423-1.65c0.474-0.55,1.159-0.75,1.739-0.4c0.526,0.3,1.054,0.85,0.843,1.4
		c-1.159,2.7-2.687,5.3-3.794,7.85c-1.845,4.601,1.897,1.5,3.162,0.15c1.318-1.351,2.583-2.95,3.795-4.2
		c0.791-0.75,0.896-0.45,1.107-0.3c0.263,0.2,0.474,0.4-0.158,1.2C53.997,24.466,52.785,25.916,51.468,27.216z"/>
	<path fill="#EA5A59" d="M73.815,21.867c1.37,0.399,1.265,1.199,0.21,1.899c-1.317,0.9-3.741,2.851-5.06,3.7
		c-0.421,0.25-0.948,0.5-1.476,0.601c-2.213,0.6-3.952-0.851-3.531-3c0.264-1.45,0.844-2.9,1.318-4.4
		c0.263-0.75,0.632-1.45,0.685-2.4c-0.316,0.2-0.685,0.35-0.948,0.65c-1.95,1.9-3.848,3.8-5.798,5.7
		c-0.843,0.85-1.634,1.65-2.477,2.45c-0.422,0.35-0.844,0.649-1.318,0.899c-1.212,0.5-2.635-0.35-2.635-1.6
		c0-0.4,0.105-0.851,0.211-1.2c0.948-3,2.214-5.85,3.848-8.6c0.79-1.3,1.054-1.3,2.318-0.25c-1.581,2.9-2.846,5.95-3.689,9.25
		c0.475-0.4,0.896-0.801,1.318-1.25c2.318-2.2,4.585-4.45,6.904-6.65c0.579-0.6,1.317-1.05,2.055-1.5
		c0.738-0.5,1.476-0.45,2.214,0.05c0.79,0.45,0.843,1.15,0.686,1.9c-0.211,0.8-0.475,1.55-0.791,2.35
		c-0.475,1.45-1.054,2.851-1.528,4.35c-0.211,0.55-0.211,1.149-0.369,2.05C68.65,25.866,71.707,23.367,73.815,21.867z"/>
</g>
<g>
	<rect x="-8.057" y="9.529" fill="none" width="138" height="59.46"/>
	<path d="M37.793,37.257c-0.557,0.624-1.113,1.2-1.72,1.728c-0.708,0.576-1.518,0.624-2.277,0.192
		c-2.479-1.393,0.557-8.545,2.227-10.897c0.354-0.479,0.556-1.056,1.366-0.96c0.708,0.097,1.113,0.385,1.214,1.248
		c-1.417,0.24-4.756,10.801-2.327,7.633c1.315-1.536,2.58-3.072,3.795-4.656c0.404-0.432,0.759-0.768,1.417-0.672
		c0.911,0.096,1.315,0.528,1.214,1.344c-0.152,1.248-0.405,2.448-0.456,3.696c-0.152,3.456,1.366,2.977,2.833,1.345
		c2.732-2.977,5.009-9.697,5.161-12.674c1.417-0.239,1.872,0.049,1.619,1.297c-1.012,4.992-2.682,9.505-6.325,12.961
		c-1.012,0.96-2.226,1.248-3.592,0.72c-1.316-0.432-1.619-1.536-1.822-2.688c-0.101-0.624-0.05-1.248-0.101-2.112
		C39.159,35.721,38.501,36.536,37.793,37.257z"/>
	<path d="M53.936,38.889c-1.315-0.528-2.176-1.776-1.872-3.841c0.101-0.815-0.102-1.487-0.709-2.352
		c1.67,0.096,1.923-1.104,2.581-1.969c0.81-1.104,1.72-2.063,2.985-2.736c1.063-0.575,2.023-0.527,3.035,0.097
		c0.962,0.624,1.266,1.392,0.86,2.4c-0.81,2.111-2.479,3.312-4.604,4.032c-0.506,0.191-1.012,0.288-1.619,0.432
		c-0.606,1.488-0.253,2.112,0.405,2.496c2.023,1.152,6.881-2.448,8.5-3.984c1.063-1.008,1.923,0.192,0.76,1.057
		C62.537,36.009,57.68,40.329,53.936,38.889z M59.097,30.728c0.859-1.487-0.203-1.584-1.215-0.768
		c-1.164,0.912-2.125,2.353-2.58,3.408C56.921,32.984,58.489,31.736,59.097,30.728z"/>
	<path d="M71.695,27.031c0.911-0.576,1.923-0.96,3.087-0.912c2.529,0,4.099,1.824,3.592,4.225c-0.202,0.72-0.506,1.44-0.81,2.353
		c1.063,0,2.024-0.048,3.036,0.048c0.962,0.048,2.024,0.192,1.721,1.248c-2.935,0.24-5.516-0.336-7.691,1.632
		c-2.023,1.921-4.705,2.305-7.488,2.305c-0.658,0-1.315-0.097-2.125-0.145c-0.152,0.288-0.304,0.624-0.455,0.96
		c-0.76,1.969-1.417,3.889-2.227,5.809c-0.405,1.057-0.709,1.2-1.721,1.057c-1.113-0.145-1.518-0.528-1.265-1.584
		c0.304-1.152,0.759-2.305,1.164-3.505c0.151-0.384,0.354-0.815,0.506-1.2c0.657-1.392,1.366-2.736,0.708-4.464
		c1.164,0,1.315-0.816,1.568-1.584c2.581-6.769,5.566-13.394,9.462-19.634c0.607-0.912,1.215-1.824,1.923-2.64
		c0.962-1.2,1.67-1.056,2.479,0.24c-0.506,0.72-1.012,1.344-1.468,2.064c-3.137,4.992-5.464,10.369-7.64,15.793
		c0,0.048,0.05,0.145,0.05,0.336C69.368,28.615,70.481,27.752,71.695,27.031z M72.05,34.809c-3.036,0-5.718,0.624-6.527,1.632
		C67.9,36.633,69.975,36.2,72.05,34.809z M72.556,33.272c1.315-0.049,2.125-0.576,2.682-1.585c0.304-0.624,0.658-1.248,0.911-1.872
		c0.253-0.672,0.606-1.536-0.051-2.063c-0.709-0.624-1.568-0.145-2.277,0.239c-2.631,1.345-4.604,3.36-6.273,5.857
		C69.216,33.656,70.886,33.32,72.556,33.272z"/>
	<path fill="#EA5A59" d="M82.828,37.641c0-1.104,0.759-2.017,1.568-2.017s1.518,0.672,1.518,1.393
		c-0.05,1.008-0.859,1.776-1.872,1.776C83.132,38.744,82.777,38.457,82.828,37.641z"/>
</g>
<g>
</g>
</svg>
